<?xml version="1.0" encoding="UTF-8" standalone="no"?>
<svg
   xmlns:dc="http://purl.org/dc/elements/1.1/"
   xmlns:cc="http://creativecommons.org/ns#"
   xmlns:rdf="http://www.w3.org/1999/02/22-rdf-syntax-ns#"
   xmlns:svg="http://www.w3.org/2000/svg"
   xmlns="http://www.w3.org/2000/svg"
   xmlns:sodipodi="http://sodipodi.sourceforge.net/DTD/sodipodi-0.dtd"
   xmlns:inkscape="http://www.inkscape.org/namespaces/inkscape"
   width="254mm"
   height="128.5mm"
   viewBox="0 0 254 128.5"
   version="1.1"
   id="svg1531"
   inkscape:version="1.0.2-2 (e86c870879, 2021-01-15)"
   sodipodi:docname="XboxModule.svg">
  <defs
     id="defs1525" />
  <sodipodi:namedview
     id="base"
     pagecolor="#ffffff"
     bordercolor="#666666"
     borderopacity="1.0"
     inkscape:pageopacity="0.0"
     inkscape:pageshadow="2"
     inkscape:zoom="0.98994949"
     inkscape:cx="376.62589"
     inkscape:cy="108.20924"
     inkscape:document-units="mm"
     inkscape:current-layer="layer2"
     inkscape:document-rotation="0"
     showgrid="false"
     inkscape:window-width="1920"
     inkscape:window-height="1137"
     inkscape:window-x="-8"
     inkscape:window-y="-8"
     inkscape:window-maximized="1" />
  <metadata
     id="metadata1528">
    <rdf:RDF>
      <cc:Work
         rdf:about="">
        <dc:format>image/svg+xml</dc:format>
        <dc:type
           rdf:resource="http://purl.org/dc/dcmitype/StillImage" />
        <dc:title></dc:title>
      </cc:Work>
    </rdf:RDF>
  </metadata>
  <g
     inkscape:groupmode="layer"
     id="layer4"
     inkscape:label="background 1"
     style="display:inline">
    <rect
       style="fill:#d1b6b6;fill-opacity:1;fill-rule:evenodd;stroke-width:0.264583"
       id="rect2423"
       width="279.5639"
       height="138.71288"
       x="-9.3544331"
       y="-4.8108511" />
  </g>
  <g
     inkscape:groupmode="layer"
     id="layer3"
     inkscape:label="background">
    <g
       id="g2317"
       transform="matrix(1.0377462,0,0,1,-1.9118287,11.22532)"
       style="stroke-width:1.58928;stroke-miterlimit:4;stroke-dasharray:none">
      <path
         style="fill:none;stroke:#000000;stroke-width:1.58928;stroke-linecap:butt;stroke-linejoin:miter;stroke-miterlimit:4;stroke-dasharray:none;stroke-opacity:1"
         d="m 122.40944,22.450641 -48.611965,2.29811 -16.067257,76.279129 22.717911,4.81085 11.49259,-19.243404 30.735991,-1.069078 v 0"
         id="path2293" />
      <path
         style="fill:none;stroke:#000000;stroke-width:1.58928;stroke-linecap:butt;stroke-linejoin:miter;stroke-miterlimit:4;stroke-dasharray:none;stroke-opacity:1"
         d="m 122.40944,22.450641 48.61197,2.29811 16.06725,76.279129 -22.71791,4.81085 -11.49259,-19.243404 -30.73599,-1.069078 v 0"
         id="path2293-4" />
    </g>
    <circle
       style="fill:#0000ff;fill-opacity:0;stroke:#0000ff;stroke-width:1.619;stroke-miterlimit:4;stroke-dasharray:none"
       id="path2319"
       cx="86.194427"
       cy="51.449383"
       r="8.9535294" />
    <circle
       style="fill:#0000ff;fill-opacity:0;stroke:#0000ff;stroke-width:1.619;stroke-miterlimit:4;stroke-dasharray:none"
       id="path2319-0"
       cx="144.59282"
       cy="75.637276"
       r="8.9535294" />
    <circle
       style="fill:#0000ff;fill-opacity:0;stroke:#0000ff;stroke-width:0.8877;stroke-miterlimit:4;stroke-dasharray:none"
       id="path2319-5"
       cx="162.90079"
       cy="63.743782"
       r="4.9092321" />
    <circle
       style="fill:#0000ff;fill-opacity:0;stroke:#0000ff;stroke-width:0.8877;stroke-miterlimit:4;stroke-dasharray:none"
       id="path2319-5-8"
       cx="153.14545"
       cy="54.522984"
       r="4.9092321" />
    <circle
       style="fill:#0000ff;fill-opacity:0;stroke:#0000ff;stroke-width:0.8877;stroke-miterlimit:4;stroke-dasharray:none"
       id="path2319-5-8-9"
       cx="162.76715"
       cy="45.703087"
       r="4.9092321" />
    <circle
       style="fill:#0000ff;fill-opacity:0;stroke:#0000ff;stroke-width:0.8877;stroke-miterlimit:4;stroke-dasharray:none"
       id="path2319-5-8-9-7"
       cx="171.58704"
       cy="54.52298"
       r="4.9092321" />
    <rect
       style="fill:#0000ff;fill-rule:evenodd;stroke-width:0.264583"
       id="rect2410"
       width="6.2822666"
       height="20.898909"
       x="102.37569"
       y="65.393089" />
    <rect
       style="fill:#0000ff;fill-rule:evenodd;stroke-width:0.28741"
       id="rect2412"
       width="21.161373"
       height="6.1567268"
       x="94.804901"
       y="72.82695"
       ry="0" />
    <rect
       style="fill:#0000ff;fill-rule:evenodd;stroke-width:0.264583"
       id="rect2414"
       width="19.243404"
       height="5.8799295"
       x="80.982666"
       y="29.399649" />
    <rect
       style="fill:#0000ff;fill-rule:evenodd;stroke-width:0.264583"
       id="rect2416"
       width="19.510675"
       height="6.1471992"
       x="152.07637"
       y="29.666918" />
    <rect
       style="fill:#0000ff;fill-rule:evenodd;stroke-width:0.264583"
       id="rect2418"
       width="5.6126595"
       height="4.8108516"
       x="102.89877"
       y="29.666918" />
    <rect
       style="fill:#0000ff;fill-rule:evenodd;stroke-width:0.264583"
       id="rect2420"
       width="6.9490099"
       height="5.0781221"
       x="142.45467"
       y="29.13238"
       ry="0" />
    <g
       aria-label="SnoozePad"
       id="text2584"
       style="font-size:23.5252px;line-height:1.25;font-family:'Lucida Console';-inkscape-font-specification:'Lucida Console';stroke-width:0.588132">
      <path
         d="m 73.641025,2.2668203 v 1.9642623 q -2.49266,-0.9649008 -4.433949,-0.9649008 -3.067006,0 -3.067006,2.0676445 0,0.8385448 0.574346,1.3554559 0.574345,0.5054242 2.125079,1.0453092 l 1.447351,0.5054242 1.37843,0.4709635 q 3.204849,1.1257175 3.204849,3.8136559 0,2.04467 -1.642629,3.27377 -1.631142,1.217613 -4.376514,1.217613 -1.906828,0 -4.927886,-0.815571 v -2.239948 q 3.009571,1.355456 4.996807,1.355456 1.67709,0 2.676451,-0.654754 0.999362,-0.666241 0.999362,-1.780472 0,-0.850032 -0.59732,-1.343969 -0.585832,-0.493937 -2.435226,-1.171665 L 68.046898,9.8137228 Q 65.783976,8.9751781 64.899483,8.0906857 64.026478,7.2061933 64.026478,5.7358683 q 0,-1.9872361 1.343969,-3.0784929 1.355456,-1.0912569 3.802168,-1.0912569 1.987237,0 4.46841,0.7007018 z"
         style="stroke-width:0.588132"
         id="path2631" />
      <path
         d="M 78.304712,16.659924 V 4.1851349 h 2.262922 v 2.3433305 q 1.56222,-2.6190164 4.250158,-2.6190164 3.549456,0 3.549456,4.2156974 V 16.659924 H 86.104326 V 8.7454398 q 0,-1.4588381 -0.459476,-2.0676445 -0.44799,-0.6202934 -1.516273,-0.6202934 -1.700063,0 -3.560943,2.4467127 v 8.1557094 z"
         style="stroke-width:0.588132"
         id="path2633" />
      <path
         d="m 97.476371,16.947096 q -2.745373,0 -4.31908,-1.734524 -1.56222,-1.746011 -1.56222,-4.790043 0,-3.0325451 1.573707,-4.7670691 1.573707,-1.7460109 4.307593,-1.7460109 2.745369,0 4.307589,1.7460109 1.57371,1.734524 1.57371,4.7670691 0,3.044032 -1.57371,4.790043 -1.56222,1.734524 -4.307589,1.734524 z m 0,-1.700063 q 1.631141,0 2.550099,-1.275047 0.91895,-1.275048 0.91895,-3.549457 0,-2.2629218 -0.91895,-3.5379693 -0.918958,-1.2750474 -2.550099,-1.2750474 -1.631142,0 -2.550095,1.2750474 -0.918953,1.2750475 -0.918953,3.5379693 0,2.274409 0.918953,3.549457 0.918953,1.275047 2.550095,1.275047 z"
         style="stroke-width:0.588132"
         id="path2635" />
      <path
         d="m 111.65122,16.947096 q -2.74537,0 -4.31908,-1.734524 -1.56222,-1.746011 -1.56222,-4.790043 0,-3.0325451 1.57371,-4.7670691 1.57371,-1.7460109 4.30759,-1.7460109 2.74538,0 4.3076,1.7460109 1.5737,1.734524 1.5737,4.7670691 0,3.044032 -1.5737,4.790043 -1.56222,1.734524 -4.3076,1.734524 z m 0,-1.700063 q 1.63114,0 2.5501,-1.275047 0.91895,-1.275048 0.91895,-3.549457 0,-2.2629218 -0.91895,-3.5379693 -0.91896,-1.2750474 -2.5501,-1.2750474 -1.63114,0 -2.55009,1.2750474 -0.91896,1.2750475 -0.91896,3.5379693 0,2.274409 0.91896,3.549457 0.91895,1.275047 2.55009,1.275047 z"
         style="stroke-width:0.588132"
         id="path2637" />
      <path
         d="M 120.30087,16.659924 V 14.95986 l 8.16719,-9.0746618 h -7.88002 V 4.1851349 h 10.55647 v 1.7000633 l -8.17868,9.0746618 h 8.38545 v 1.700064 z"
         style="stroke-width:0.588132"
         id="path2639" />
      <path
         d="m 145.52613,16.165986 q -2.35481,0.78111 -4.31908,0.78111 -3.21633,0 -4.95086,-1.654115 -1.72303,-1.654116 -1.72303,-4.732609 0,-2.906189 1.65411,-4.778556 1.6656,-1.872367 4.22719,-1.872367 2.58455,0 3.80217,1.5507334 1.22909,1.5507334 1.22909,4.8245036 v 0.723676 h -8.50031 q 0.25271,4.238671 4.57179,4.238671 1.82642,0 4.00893,-0.873005 z m -8.5118,-6.8576874 h 6.01914 V 8.986665 q 0,-3.3771527 -2.81429,-3.3771527 -1.35546,0 -2.20549,0.9763877 -0.83854,0.9763877 -0.99936,2.7223986 z"
         style="stroke-width:0.588132"
         id="path2641" />
      <path
         d="M 149.70737,16.659924 V 1.9222129 h 4.79004 q 2.56158,0 3.65284,0.4594765 2.22846,0.9649008 2.22846,3.7217602 0,2.3203566 -1.80344,3.6413517 -1.79196,1.3209947 -4.95086,1.3209947 h -1.65412 v 5.594128 z m 2.26292,-7.2941908 h 1.41289 q 4.59477,0 4.59477,-3.216336 0,-1.3554558 -0.87301,-1.9412884 -0.86152,-0.5858326 -2.88321,-0.5858326 h -2.25144 z"
         style="stroke-width:0.588132"
         id="path2643" />
      <path
         d="m 170.85478,15.155138 q -2.05616,1.723037 -4.10083,1.723037 -1.71155,0 -2.82578,-0.976388 -1.10275,-0.976387 -1.10275,-2.469686 0,-1.941289 1.72304,-3.124441 1.72304,-1.183152 4.54882,-1.183152 h 1.4014 V 8.056225 q 0,-1.3209952 -0.58583,-1.8838539 -0.58583,-0.5628588 -1.94129,-0.5628588 -1.96426,0 -4.06637,1.1027437 V 4.7709676 q 2.41225,-0.8615186 4.52585,-0.8615186 2.37779,0 3.35418,0.941927 0.98787,0.9419269 0.98787,3.2507966 v 5.2265454 q 0,1.125718 0.24123,1.539247 0.24122,0.402042 0.90746,0.402042 0.21825,0 0.71219,-0.114869 l 0.20677,1.355456 q -1.13721,0.367581 -1.72304,0.367581 -1.67709,0 -2.26292,-1.723037 z m -0.3561,-1.470325 v -3.147415 h -0.67773 q -4.6522,0 -4.6522,2.515635 0,0.907466 0.59732,1.458838 0.59732,0.551372 1.5852,0.551372 1.48181,0 3.14741,-1.37843 z"
         style="stroke-width:0.588132"
         id="path2645" />
      <path
         d="m 185.54654,16.659924 v -2.343331 q -1.65412,2.630503 -4.08934,2.630503 -2.1136,0 -3.3427,-1.642628 -1.21761,-1.642629 -1.21761,-4.46841 0,-3.1014666 1.44735,-5.0082944 1.44735,-1.9183146 3.79068,-1.9183146 2.01021,0 3.41162,1.7000633 v -7.087426 h 2.26292 V 16.659924 Z m 0,-9.3503484 q -1.5852,-1.7000633 -3.10147,-1.7000633 -1.4933,0 -2.32036,1.3095082 -0.81557,1.3095082 -0.81557,3.6872995 0,4.399488 2.63051,4.399488 1.91831,0 3.60689,-2.389278 z"
         style="stroke-width:0.588132"
         id="path2647" />
    </g>
  </g>
  <g
     inkscape:groupmode="layer"
     id="layer2"
     inkscape:label="components"
     style="display:inline">
    <circle
       style="fill:#0000ff;fill-opacity:0;stroke:#0000ff;stroke-width:0.264583"
       id="b_button"
       cx="171.05251"
       cy="54.790249"
       r="4.8108511" />
    <circle
       style="fill:#0000ff;fill-opacity:0;stroke:#0000ff;stroke-width:0.264583"
       id="a_button"
       cx="163.03442"
       cy="63.075607"
       r="4.8108511" />
    <circle
       style="fill:#0000ff;fill-opacity:0;stroke:#0000ff;stroke-width:0.264583"
       id="y_button"
       cx="162.76715"
       cy="46.504902"
       r="4.8108511" />
    <circle
       style="fill:#0000ff;fill-opacity:0;stroke:#0000ff;stroke-width:0.264583"
       id="x_button"
       cx="152.87817"
       cy="55.324787"
       r="4.8108511" />
    <circle
       style="fill:#0000ff;fill-opacity:0;stroke:#0000ff;stroke-width:0.264583"
       id="left_analog_x"
       cx="96.350662"
       cy="51.048481"
       r="4.8108511" />
    <circle
       style="fill:#0000ff;fill-opacity:0;stroke:#0000ff;stroke-width:0.264583"
       id="left_analog_y"
       cx="86.595337"
       cy="60.937454"
       r="4.8108511" />
    <circle
       style="display:inline;fill:#0000ff;fill-opacity:0;stroke:#0000ff;stroke-width:0.264583"
       id="right_analog_x"
       cx="154.74904"
       cy="76.171814"
       r="4.8108511" />
    <circle
       style="display:inline;fill:#0000ff;fill-opacity:0;stroke:#0000ff;stroke-width:0.264583"
       id="right_analog_y"
       cx="144.86009"
       cy="86.328056"
       r="4.8108511" />
    <circle
       style="display:inline;fill:#0000ff;fill-opacity:0;stroke:#0000ff;stroke-width:0.264583"
       id="digital_up"
       cx="105.57147"
       cy="66.282845"
       r="4.8108511" />
    <circle
       style="display:inline;fill:#0000ff;fill-opacity:0;stroke:#0000ff;stroke-width:0.264583"
       id="digital_right"
       cx="114.65863"
       cy="76.171814"
       r="4.8108511" />
    <circle
       style="display:inline;fill:#0000ff;fill-opacity:0;stroke:#0000ff;stroke-width:0.264583"
       id="digital_down"
       cx="105.57147"
       cy="85.258972"
       r="4.8108511" />
    <circle
       style="display:inline;fill:#0000ff;fill-opacity:0;stroke:#0000ff;stroke-width:0.264583"
       id="digital_left"
       cx="95.94976"
       cy="75.637276"
       r="4.8108511" />
    <circle
       style="display:inline;fill:#0000ff;fill-opacity:0;stroke:#00ff00;stroke-width:0.264583;stroke-opacity:1"
       id="rumble_left"
       cx="73.231857"
       cy="105.30419"
       r="4.8108511" />
    <circle
       style="display:inline;fill:#0000ff;fill-opacity:0;stroke:#00ff00;stroke-width:0.264583;stroke-opacity:1"
       id="rumble_right"
       cx="179.07059"
       cy="105.30419"
       r="4.8108511" />
    <circle
       style="display:inline;fill:#0000ff;fill-opacity:0;stroke:#0000ff;stroke-width:0.264583"
       id="left_trigger"
       cx="89.802567"
       cy="32.339611"
       r="4.8108511" />
    <circle
       style="display:inline;fill:#0000ff;fill-opacity:0;stroke:#0000ff;stroke-width:0.264583"
       id="left_shoulder"
       cx="105.83873"
       cy="32.606884"
       r="4.8108511" />
    <circle
       style="display:inline;fill:#0000ff;fill-opacity:0;stroke:#0000ff;stroke-width:0.264583"
       id="right_shoulder"
       cx="145.6619"
       cy="32.072342"
       r="4.8108511" />
    <circle
       style="display:inline;fill:#0000ff;fill-opacity:0;stroke:#0000ff;stroke-width:0.264583"
       id="right_trigger"
       cx="162.49988"
       cy="32.339611"
       r="4.8108511" />
    <circle
       style="display:inline;fill:#0000ff;fill-opacity:0;stroke:#0000ff;stroke-width:0.264583"
       id="right_analog_button"
       cx="144.05827"
       cy="74.835472"
       r="4.8108511" />
    <circle
       style="display:inline;fill:#0000ff;fill-opacity:0;stroke:#0000ff;stroke-width:0.264583"
       id="left_analog_button"
       cx="84.991714"
       cy="50.24667"
       r="4.8108511" />
  </g>
</svg>
